<?xml version="1.0" encoding="UTF-8"?><svg xmlns="http://www.w3.org/2000/svg" xmlns:xlink="http://www.w3.org/1999/xlink" fill-opacity="1" color-rendering="auto" color-interpolation="auto" text-rendering="auto" stroke="black" stroke-linecap="square" width="775" stroke-miterlimit="10" shape-rendering="auto" stroke-opacity="1" fill="black" stroke-dasharray="none" font-weight="normal" stroke-width="1" height="415" font-family="'Dialog'" font-style="normal" stroke-linejoin="miter" font-size="12px" stroke-dashoffset="0" image-rendering="auto">
  <!--Generated by ySVG 2.5-->
  <defs id="genericDefs"/>
  <g>
    <defs id="defs1">
      <clipPath clipPathUnits="userSpaceOnUse" id="clipPath1">
        <path d="M0 0 L775 0 L775 415 L0 415 L0 0 Z"/>
      </clipPath>
      <clipPath clipPathUnits="userSpaceOnUse" id="clipPath2">
        <path d="M-94 528 L681 528 L681 943 L-94 943 L-94 528 Z"/>
      </clipPath>
      <clipPath clipPathUnits="userSpaceOnUse" id="clipPath3">
        <path d="M471 847 L471 929 L661 929 L661 847 Z"/>
      </clipPath>
      <clipPath clipPathUnits="userSpaceOnUse" id="clipPath4">
        <path d="M471 753 L471 835 L661 835 L661 753 Z"/>
      </clipPath>
      <clipPath clipPathUnits="userSpaceOnUse" id="clipPath5">
        <path d="M471 660 L471 742 L661 742 L661 660 Z"/>
      </clipPath>
      <clipPath clipPathUnits="userSpaceOnUse" id="clipPath6">
        <path d="M471 566 L471 648 L661 648 L661 566 Z"/>
      </clipPath>
      <clipPath clipPathUnits="userSpaceOnUse" id="clipPath7">
        <path d="M-77 566 L-77 648 L146 648 L146 566 Z"/>
      </clipPath>
      <clipPath clipPathUnits="userSpaceOnUse" id="clipPath8">
        <path d="M-77 659 L-77 741 L146 741 L146 659 Z"/>
      </clipPath>
      <clipPath clipPathUnits="userSpaceOnUse" id="clipPath9">
        <path d="M-77 752 L-77 834 L146 834 L146 752 Z"/>
      </clipPath>
      <clipPath clipPathUnits="userSpaceOnUse" id="clipPath10">
        <path d="M-77 845 L-77 927 L146 927 L146 845 Z"/>
      </clipPath>
      <clipPath clipPathUnits="userSpaceOnUse" id="clipPath11">
        <path d="M190 566 L190 648 L413 648 L413 566 Z"/>
      </clipPath>
      <clipPath clipPathUnits="userSpaceOnUse" id="clipPath12">
        <path d="M191 661 L191 743 L414 743 L414 661 Z"/>
      </clipPath>
      <clipPath clipPathUnits="userSpaceOnUse" id="clipPath13">
        <path d="M190 754 L190 836 L413 836 L413 754 Z"/>
      </clipPath>
      <clipPath clipPathUnits="userSpaceOnUse" id="clipPath14">
        <path d="M190 847 L190 929 L413 929 L413 847 Z"/>
      </clipPath>
    </defs>
    <g fill="white" text-rendering="geometricPrecision" shape-rendering="geometricPrecision" transform="translate(94,-528)" stroke="white">
      <rect x="-94" width="775" height="415" y="528" clip-path="url(#clipPath2)" stroke="none"/>
    </g>
    <g text-rendering="geometricPrecision" stroke-miterlimit="1.45" shape-rendering="geometricPrecision" transform="matrix(1,0,0,1,94,-528)" stroke-linecap="butt">
      <path fill="none" d="M413.7509 888.5 L463.6385 888.5" clip-path="url(#clipPath2)"/>
      <path d="M471.6385 888.5 L459.6385 883.5 L462.6385 888.5 L459.6385 893.5 Z" clip-path="url(#clipPath2)" stroke="none"/>
      <path fill="none" d="M413.7509 795.5 L463.6385 795.5" clip-path="url(#clipPath2)"/>
      <path d="M471.6385 795.5 L459.6385 790.5 L462.6385 795.5 L459.6385 800.5 Z" clip-path="url(#clipPath2)" stroke="none"/>
      <path fill="none" d="M414.3699 702.5 L463.6514 702.5" clip-path="url(#clipPath2)"/>
      <path d="M471.6514 702.5 L459.6514 697.5 L462.6514 702.5 L459.6514 707.5 Z" clip-path="url(#clipPath2)" stroke="none"/>
      <path fill="none" d="M413.7509 607.5 L463.6385 607.5" clip-path="url(#clipPath2)"/>
      <path d="M471.6385 607.5 L459.6385 602.5 L462.6385 607.5 L459.6385 612.5 Z" clip-path="url(#clipPath2)" stroke="none"/>
      <path fill="none" d="M145.2208 607.5 L182.727 607.5" clip-path="url(#clipPath2)"/>
      <path d="M190.727 607.5 L178.727 602.5 L181.727 607.5 L178.727 612.5 Z" clip-path="url(#clipPath2)" stroke="none"/>
      <path fill="none" d="M145.2174 700.5 L183.3677 700.5" clip-path="url(#clipPath2)"/>
      <path d="M191.3677 700.5 L179.3677 695.5 L182.3677 700.5 L179.3677 705.5 Z" clip-path="url(#clipPath2)" stroke="none"/>
      <path fill="none" d="M145.2208 793.5 L182.727 793.5" clip-path="url(#clipPath2)"/>
      <path d="M190.727 793.5 L178.727 788.5 L181.727 793.5 L178.727 798.5 Z" clip-path="url(#clipPath2)" stroke="none"/>
      <path fill="none" d="M145.2208 886.5 L182.727 886.5" clip-path="url(#clipPath2)"/>
      <path d="M190.727 886.5 L178.727 881.5 L181.727 886.5 L178.727 891.5 Z" clip-path="url(#clipPath2)" stroke="none"/>
    </g>
    <g fill="white" text-rendering="geometricPrecision" shape-rendering="geometricPrecision" transform="matrix(1,0,0,1,94,-528)" stroke="white">
      <rect x="452.5" y="533.5" clip-path="url(#clipPath2)" width="223" rx="4" ry="4" height="404" stroke="none"/>
    </g>
    <g text-rendering="geometricPrecision" stroke-miterlimit="1.45" shape-rendering="geometricPrecision" font-family="sans-serif" transform="matrix(1,0,0,1,94,-528)" stroke-linecap="butt">
      <text x="534.6504" xml:space="preserve" y="551.5645" clip-path="url(#clipPath2)" stroke="none">Empfänger</text>
      <rect x="452.5" y="533.5" clip-path="url(#clipPath2)" fill="none" width="223" stroke-dasharray="6,2" rx="4" ry="4" height="404"/>
    </g>
    <g fill="white" text-rendering="geometricPrecision" shape-rendering="geometricPrecision" transform="matrix(1,0,0,1,94,-528)" stroke="white">
      <rect x="-88.75" y="533.5" clip-path="url(#clipPath2)" width="242" rx="4" ry="4" height="404" stroke="none"/>
    </g>
    <g text-rendering="geometricPrecision" stroke-miterlimit="1.45" shape-rendering="geometricPrecision" font-family="sans-serif" transform="matrix(1,0,0,1,94,-528)" stroke-linecap="butt">
      <text x="10.9072" xml:space="preserve" y="551.5645" clip-path="url(#clipPath2)" stroke="none">Aufrufer</text>
      <rect x="-88.75" y="533.5" clip-path="url(#clipPath2)" fill="none" width="242" stroke-dasharray="6,2" rx="4" ry="4" height="404"/>
    </g>
    <g fill="rgb(255,204,0)" text-rendering="geometricPrecision" shape-rendering="geometricPrecision" transform="matrix(1,0,0,1,94,-528)" stroke="rgb(255,204,0)">
      <rect x="472" width="188" height="80" y="848" clip-path="url(#clipPath2)" stroke="none"/>
      <rect x="471" y="847" clip-path="url(#clipPath2)" fill="yellow" width="1" height="82" stroke="none"/>
      <rect x="472" y="847" clip-path="url(#clipPath2)" fill="yellow" width="188" height="1" stroke="none"/>
      <rect x="472" y="928" clip-path="url(#clipPath2)" fill="rgb(178,142,0)" width="189" height="1" stroke="none"/>
      <rect x="660" y="847" clip-path="url(#clipPath2)" fill="rgb(178,142,0)" width="1" height="81" stroke="none"/>
    </g>
    <g font-size="13px" stroke-linecap="butt" transform="matrix(1,0,0,1,94,-528)" text-rendering="geometricPrecision" font-family="sans-serif" shape-rendering="geometricPrecision" font-weight="bold" stroke-miterlimit="1.45">
      <text x="529.0564" xml:space="preserve" y="865.5698" clip-path="url(#clipPath3)" stroke="none">PDFDrucker</text>
    </g>
    <g text-rendering="geometricPrecision" shape-rendering="geometricPrecision" transform="matrix(1,0,0,1,94,-528)">
      <line y2="873" fill="none" x1="472" clip-path="url(#clipPath3)" x2="660" y1="873"/>
      <line y2="883" fill="none" x1="472" clip-path="url(#clipPath3)" x2="660" y1="883"/>
      <text stroke-linecap="butt" x="476.625" y="900.4907" clip-path="url(#clipPath3)" font-family="sans-serif" stroke="none" stroke-miterlimit="1.45" xml:space="preserve">speichern(dokument: String)</text>
      <rect x="472" y="754" clip-path="url(#clipPath2)" fill="rgb(255,204,0)" width="188" height="80" stroke="none"/>
      <rect x="471" y="753" clip-path="url(#clipPath2)" fill="yellow" width="1" height="82" stroke="none"/>
      <rect x="472" y="753" clip-path="url(#clipPath2)" fill="yellow" width="188" height="1" stroke="none"/>
      <rect x="472" y="834" clip-path="url(#clipPath2)" fill="rgb(178,142,0)" width="189" height="1" stroke="none"/>
      <rect x="660" y="753" clip-path="url(#clipPath2)" fill="rgb(178,142,0)" width="1" height="81" stroke="none"/>
    </g>
    <g font-size="13px" stroke-linecap="butt" transform="matrix(1,0,0,1,94,-528)" text-rendering="geometricPrecision" font-family="sans-serif" shape-rendering="geometricPrecision" font-weight="bold" stroke-miterlimit="1.45">
      <text x="524.356" xml:space="preserve" y="771.5698" clip-path="url(#clipPath4)" stroke="none">NadelDrucker</text>
    </g>
    <g text-rendering="geometricPrecision" shape-rendering="geometricPrecision" transform="matrix(1,0,0,1,94,-528)">
      <line y2="779" fill="none" x1="472" clip-path="url(#clipPath4)" x2="660" y1="779"/>
      <line y2="789" fill="none" x1="472" clip-path="url(#clipPath4)" x2="660" y1="789"/>
      <text stroke-linecap="butt" x="476.625" y="806.4907" clip-path="url(#clipPath4)" font-family="sans-serif" stroke="none" stroke-miterlimit="1.45" xml:space="preserve">umstaendlichKonfigurieren()</text>
      <text stroke-linecap="butt" x="476.625" y="821.1919" clip-path="url(#clipPath4)" font-family="sans-serif" stroke="none" stroke-miterlimit="1.45" xml:space="preserve">drucken(dokument: String)</text>
      <rect x="472" y="661" clip-path="url(#clipPath2)" fill="rgb(255,204,0)" width="188" height="80" stroke="none"/>
      <rect x="471" y="660" clip-path="url(#clipPath2)" fill="yellow" width="1" height="82" stroke="none"/>
      <rect x="472" y="660" clip-path="url(#clipPath2)" fill="yellow" width="188" height="1" stroke="none"/>
      <rect x="472" y="741" clip-path="url(#clipPath2)" fill="rgb(178,142,0)" width="189" height="1" stroke="none"/>
      <rect x="660" y="660" clip-path="url(#clipPath2)" fill="rgb(178,142,0)" width="1" height="81" stroke="none"/>
    </g>
    <g font-size="13px" stroke-linecap="butt" transform="matrix(1,0,0,1,94,-528)" text-rendering="geometricPrecision" font-family="sans-serif" shape-rendering="geometricPrecision" font-weight="bold" stroke-miterlimit="1.45">
      <text x="527.9709" xml:space="preserve" y="678.0698" clip-path="url(#clipPath5)" stroke="none">FarbDrucker</text>
    </g>
    <g text-rendering="geometricPrecision" shape-rendering="geometricPrecision" transform="matrix(1,0,0,1,94,-528)">
      <line y2="685" fill="none" x1="472" clip-path="url(#clipPath5)" x2="660" y1="685"/>
      <line y2="695" fill="none" x1="472" clip-path="url(#clipPath5)" x2="660" y1="695"/>
      <text stroke-linecap="butt" x="476.625" y="712.9907" clip-path="url(#clipPath5)" font-family="sans-serif" stroke="none" stroke-miterlimit="1.45" xml:space="preserve">drucken(dokument: String)</text>
      <rect x="472" y="567" clip-path="url(#clipPath2)" fill="rgb(255,204,0)" width="188" height="80" stroke="none"/>
      <rect x="471" y="566" clip-path="url(#clipPath2)" fill="yellow" width="1" height="82" stroke="none"/>
      <rect x="472" y="566" clip-path="url(#clipPath2)" fill="yellow" width="188" height="1" stroke="none"/>
      <rect x="472" y="647" clip-path="url(#clipPath2)" fill="rgb(178,142,0)" width="189" height="1" stroke="none"/>
      <rect x="660" y="566" clip-path="url(#clipPath2)" fill="rgb(178,142,0)" width="1" height="81" stroke="none"/>
    </g>
    <g font-size="13px" stroke-linecap="butt" transform="matrix(1,0,0,1,94,-528)" text-rendering="geometricPrecision" font-family="sans-serif" shape-rendering="geometricPrecision" font-weight="bold" stroke-miterlimit="1.45">
      <text x="496.8992" xml:space="preserve" y="584.5698" clip-path="url(#clipPath6)" stroke="none">SchwarzWeissDrucker</text>
    </g>
    <g text-rendering="geometricPrecision" shape-rendering="geometricPrecision" transform="matrix(1,0,0,1,94,-528)">
      <line y2="592" fill="none" x1="472" clip-path="url(#clipPath6)" x2="660" y1="592"/>
      <line y2="602" fill="none" x1="472" clip-path="url(#clipPath6)" x2="660" y1="602"/>
      <text stroke-linecap="butt" x="476.625" y="619.4907" clip-path="url(#clipPath6)" font-family="sans-serif" stroke="none" stroke-miterlimit="1.45" xml:space="preserve">konfigurieren()</text>
      <text stroke-linecap="butt" x="476.625" y="634.1919" clip-path="url(#clipPath6)" font-family="sans-serif" stroke="none" stroke-miterlimit="1.45" xml:space="preserve">drucken(dokument: String)</text>
      <rect x="-76" y="567" clip-path="url(#clipPath2)" fill="rgb(255,204,0)" width="221" height="80" stroke="none"/>
      <rect x="-77" y="566" clip-path="url(#clipPath2)" fill="yellow" width="1" height="82" stroke="none"/>
      <rect x="-76" y="566" clip-path="url(#clipPath2)" fill="yellow" width="221" height="1" stroke="none"/>
      <rect x="-76" y="647" clip-path="url(#clipPath2)" fill="rgb(178,142,0)" width="222" height="1" stroke="none"/>
      <rect x="145" y="566" clip-path="url(#clipPath2)" fill="rgb(178,142,0)" width="1" height="81" stroke="none"/>
    </g>
    <g font-size="13px" stroke-linecap="butt" transform="matrix(1,0,0,1,94,-528)" text-rendering="geometricPrecision" font-family="sans-serif" shape-rendering="geometricPrecision" font-weight="bold" stroke-miterlimit="1.45">
      <text x="7.731" xml:space="preserve" y="584.5698" clip-path="url(#clipPath7)" stroke="none">Sekretär</text>
    </g>
    <g text-rendering="geometricPrecision" shape-rendering="geometricPrecision" transform="matrix(1,0,0,1,94,-528)">
      <line y2="592" fill="none" x1="-76" clip-path="url(#clipPath7)" x2="144" y1="592"/>
      <line y2="602" fill="none" x1="-76" clip-path="url(#clipPath7)" x2="144" y1="602"/>
      <text stroke-linecap="butt" x="-72.75" y="619.4907" clip-path="url(#clipPath7)" font-family="sans-serif" stroke="none" stroke-miterlimit="1.45" xml:space="preserve">druckAusloesen(dokument: String)</text>
      <rect x="-76" y="660" clip-path="url(#clipPath2)" fill="rgb(255,204,0)" width="221" height="80" stroke="none"/>
      <rect x="-77" y="659" clip-path="url(#clipPath2)" fill="yellow" width="1" height="82" stroke="none"/>
      <rect x="-76" y="659" clip-path="url(#clipPath2)" fill="yellow" width="221" height="1" stroke="none"/>
      <rect x="-76" y="740" clip-path="url(#clipPath2)" fill="rgb(178,142,0)" width="222" height="1" stroke="none"/>
      <rect x="145" y="659" clip-path="url(#clipPath2)" fill="rgb(178,142,0)" width="1" height="81" stroke="none"/>
    </g>
    <g font-size="13px" stroke-linecap="butt" transform="matrix(1,0,0,1,94,-528)" text-rendering="geometricPrecision" font-family="sans-serif" shape-rendering="geometricPrecision" font-weight="bold" stroke-miterlimit="1.45">
      <text x="5.5791" xml:space="preserve" y="677.5698" clip-path="url(#clipPath8)" stroke="none">Vorstand</text>
    </g>
    <g text-rendering="geometricPrecision" shape-rendering="geometricPrecision" transform="matrix(1,0,0,1,94,-528)">
      <line y2="685" fill="none" x1="-76" clip-path="url(#clipPath8)" x2="144" y1="685"/>
      <line y2="695" fill="none" x1="-76" clip-path="url(#clipPath8)" x2="144" y1="695"/>
      <text stroke-linecap="butt" x="-72.75" y="712.4907" clip-path="url(#clipPath8)" font-family="sans-serif" stroke="none" stroke-miterlimit="1.45" xml:space="preserve">druckAusloesen(dokument: String)</text>
      <rect x="-76" y="753" clip-path="url(#clipPath2)" fill="rgb(255,204,0)" width="221" height="80" stroke="none"/>
      <rect x="-77" y="752" clip-path="url(#clipPath2)" fill="yellow" width="1" height="82" stroke="none"/>
      <rect x="-76" y="752" clip-path="url(#clipPath2)" fill="yellow" width="221" height="1" stroke="none"/>
      <rect x="-76" y="833" clip-path="url(#clipPath2)" fill="rgb(178,142,0)" width="222" height="1" stroke="none"/>
      <rect x="145" y="752" clip-path="url(#clipPath2)" fill="rgb(178,142,0)" width="1" height="81" stroke="none"/>
    </g>
    <g font-size="13px" stroke-linecap="butt" transform="matrix(1,0,0,1,94,-528)" text-rendering="geometricPrecision" font-family="sans-serif" shape-rendering="geometricPrecision" font-weight="bold" stroke-miterlimit="1.45">
      <text x="2.3196" xml:space="preserve" y="770.5698" clip-path="url(#clipPath9)" stroke="none">Praktikant</text>
    </g>
    <g text-rendering="geometricPrecision" shape-rendering="geometricPrecision" transform="matrix(1,0,0,1,94,-528)">
      <line y2="778" fill="none" x1="-76" clip-path="url(#clipPath9)" x2="144" y1="778"/>
      <line y2="788" fill="none" x1="-76" clip-path="url(#clipPath9)" x2="144" y1="788"/>
      <text stroke-linecap="butt" x="-72.75" y="805.4907" clip-path="url(#clipPath9)" font-family="sans-serif" stroke="none" stroke-miterlimit="1.45" xml:space="preserve">druckAusloesen(dokument: String)</text>
      <rect x="-76" y="846" clip-path="url(#clipPath2)" fill="rgb(255,204,0)" width="221" height="80" stroke="none"/>
      <rect x="-77" y="845" clip-path="url(#clipPath2)" fill="yellow" width="1" height="82" stroke="none"/>
      <rect x="-76" y="845" clip-path="url(#clipPath2)" fill="yellow" width="221" height="1" stroke="none"/>
      <rect x="-76" y="926" clip-path="url(#clipPath2)" fill="rgb(178,142,0)" width="222" height="1" stroke="none"/>
      <rect x="145" y="845" clip-path="url(#clipPath2)" fill="rgb(178,142,0)" width="1" height="81" stroke="none"/>
    </g>
    <g font-size="13px" stroke-linecap="butt" transform="matrix(1,0,0,1,94,-528)" text-rendering="geometricPrecision" font-family="sans-serif" shape-rendering="geometricPrecision" font-weight="bold" stroke-miterlimit="1.45">
      <text x="-12.8545" xml:space="preserve" y="863.5698" clip-path="url(#clipPath10)" stroke="none">Programmierer</text>
    </g>
    <g text-rendering="geometricPrecision" shape-rendering="geometricPrecision" transform="matrix(1,0,0,1,94,-528)">
      <line y2="871" fill="none" x1="-76" clip-path="url(#clipPath10)" x2="144" y1="871"/>
      <line y2="881" fill="none" x1="-76" clip-path="url(#clipPath10)" x2="144" y1="881"/>
      <text stroke-linecap="butt" x="-72.75" y="898.4907" clip-path="url(#clipPath10)" font-family="sans-serif" stroke="none" stroke-miterlimit="1.45" xml:space="preserve">druckAusloesen(dokument: String)</text>
      <rect x="175.25" y="533.5" clip-path="url(#clipPath2)" fill="white" width="254" rx="4" ry="4" height="404" stroke="none"/>
      <text stroke-linecap="butt" x="281.9004" y="551.5645" clip-path="url(#clipPath2)" font-family="sans-serif" stroke="none" stroke-miterlimit="1.45" xml:space="preserve">Befehle</text>
      <rect stroke-linecap="butt" x="175.25" y="533.5" clip-path="url(#clipPath2)" fill="none" width="254" stroke-dasharray="6,2" rx="4" ry="4" height="404" stroke-miterlimit="1.45"/>
      <rect x="191" y="567" clip-path="url(#clipPath2)" fill="rgb(255,204,0)" width="221" height="80" stroke="none"/>
      <rect x="190" y="566" clip-path="url(#clipPath2)" fill="yellow" width="1" height="82" stroke="none"/>
      <rect x="191" y="566" clip-path="url(#clipPath2)" fill="yellow" width="221" height="1" stroke="none"/>
      <rect x="191" y="647" clip-path="url(#clipPath2)" fill="rgb(178,142,0)" width="222" height="1" stroke="none"/>
      <rect x="412" y="566" clip-path="url(#clipPath2)" fill="rgb(178,142,0)" width="1" height="81" stroke="none"/>
    </g>
    <g font-size="13px" stroke-linecap="butt" transform="matrix(1,0,0,1,94,-528)" text-rendering="geometricPrecision" font-family="sans-serif" shape-rendering="geometricPrecision" font-weight="bold" stroke-miterlimit="1.45">
      <text x="218.8037" xml:space="preserve" y="584.5698" clip-path="url(#clipPath11)" stroke="none">SchwarzWeissDruckBefehl</text>
    </g>
    <g text-rendering="geometricPrecision" shape-rendering="geometricPrecision" transform="matrix(1,0,0,1,94,-528)">
      <line y2="592" fill="none" x1="191" clip-path="url(#clipPath11)" x2="412" y1="592"/>
      <line y2="602" fill="none" x1="191" clip-path="url(#clipPath11)" x2="412" y1="602"/>
      <text stroke-linecap="butt" x="195.75" y="619.4907" clip-path="url(#clipPath11)" font-family="sans-serif" stroke="none" stroke-miterlimit="1.45" xml:space="preserve">ausfuehren(dokument: String)</text>
      <rect x="192" y="662" clip-path="url(#clipPath2)" fill="rgb(255,204,0)" width="221" height="80" stroke="none"/>
      <rect x="191" y="661" clip-path="url(#clipPath2)" fill="yellow" width="1" height="82" stroke="none"/>
      <rect x="192" y="661" clip-path="url(#clipPath2)" fill="yellow" width="221" height="1" stroke="none"/>
      <rect x="192" y="742" clip-path="url(#clipPath2)" fill="rgb(178,142,0)" width="222" height="1" stroke="none"/>
      <rect x="413" y="661" clip-path="url(#clipPath2)" fill="rgb(178,142,0)" width="1" height="81" stroke="none"/>
    </g>
    <g font-size="13px" stroke-linecap="butt" transform="matrix(1,0,0,1,94,-528)" text-rendering="geometricPrecision" font-family="sans-serif" shape-rendering="geometricPrecision" font-weight="bold" stroke-miterlimit="1.45">
      <text x="250.5005" xml:space="preserve" y="679.5698" clip-path="url(#clipPath12)" stroke="none">FarbDruckBefehl</text>
    </g>
    <g text-rendering="geometricPrecision" shape-rendering="geometricPrecision" transform="matrix(1,0,0,1,94,-528)">
      <line y2="687" fill="none" x1="192" clip-path="url(#clipPath12)" x2="413" y1="687"/>
      <line y2="697" fill="none" x1="192" clip-path="url(#clipPath12)" x2="413" y1="697"/>
      <text stroke-linecap="butt" x="196.375" y="714.4907" clip-path="url(#clipPath12)" font-family="sans-serif" stroke="none" stroke-miterlimit="1.45" xml:space="preserve">ausfuehren(dokument: String)</text>
      <rect x="191" y="755" clip-path="url(#clipPath2)" fill="rgb(255,204,0)" width="221" height="80" stroke="none"/>
      <rect x="190" y="754" clip-path="url(#clipPath2)" fill="yellow" width="1" height="82" stroke="none"/>
      <rect x="191" y="754" clip-path="url(#clipPath2)" fill="yellow" width="221" height="1" stroke="none"/>
      <rect x="191" y="835" clip-path="url(#clipPath2)" fill="rgb(178,142,0)" width="222" height="1" stroke="none"/>
      <rect x="412" y="754" clip-path="url(#clipPath2)" fill="rgb(178,142,0)" width="1" height="81" stroke="none"/>
    </g>
    <g font-size="13px" stroke-linecap="butt" transform="matrix(1,0,0,1,94,-528)" text-rendering="geometricPrecision" font-family="sans-serif" shape-rendering="geometricPrecision" font-weight="bold" stroke-miterlimit="1.45">
      <text x="246.2605" xml:space="preserve" y="772.5698" clip-path="url(#clipPath13)" stroke="none">NadelDruckBefehl</text>
    </g>
    <g text-rendering="geometricPrecision" shape-rendering="geometricPrecision" transform="matrix(1,0,0,1,94,-528)">
      <line y2="780" fill="none" x1="191" clip-path="url(#clipPath13)" x2="412" y1="780"/>
      <line y2="790" fill="none" x1="191" clip-path="url(#clipPath13)" x2="412" y1="790"/>
      <text stroke-linecap="butt" x="195.75" y="807.4907" clip-path="url(#clipPath13)" font-family="sans-serif" stroke="none" stroke-miterlimit="1.45" xml:space="preserve">ausfuehren(dokument: String)</text>
      <rect x="191" y="848" clip-path="url(#clipPath2)" fill="rgb(255,204,0)" width="221" height="80" stroke="none"/>
      <rect x="190" y="847" clip-path="url(#clipPath2)" fill="yellow" width="1" height="82" stroke="none"/>
      <rect x="191" y="847" clip-path="url(#clipPath2)" fill="yellow" width="221" height="1" stroke="none"/>
      <rect x="191" y="928" clip-path="url(#clipPath2)" fill="rgb(178,142,0)" width="222" height="1" stroke="none"/>
      <rect x="412" y="847" clip-path="url(#clipPath2)" fill="rgb(178,142,0)" width="1" height="81" stroke="none"/>
    </g>
    <g font-size="13px" stroke-linecap="butt" transform="matrix(1,0,0,1,94,-528)" text-rendering="geometricPrecision" font-family="sans-serif" shape-rendering="geometricPrecision" font-weight="bold" stroke-miterlimit="1.45">
      <text x="250.9609" xml:space="preserve" y="865.5698" clip-path="url(#clipPath14)" stroke="none">PDFDruckBefehl</text>
    </g>
    <g text-rendering="geometricPrecision" shape-rendering="geometricPrecision" transform="matrix(1,0,0,1,94,-528)">
      <line y2="873" fill="none" x1="191" clip-path="url(#clipPath14)" x2="412" y1="873"/>
      <line y2="883" fill="none" x1="191" clip-path="url(#clipPath14)" x2="412" y1="883"/>
      <text stroke-linecap="butt" x="195.75" y="900.4907" clip-path="url(#clipPath14)" font-family="sans-serif" stroke="none" stroke-miterlimit="1.45" xml:space="preserve">ausfuehren(dokument: String)</text>
    </g>
  </g>
</svg>
