<?xml version="1.0" encoding="UTF-8"?><svg xmlns="http://www.w3.org/2000/svg" xmlns:xlink="http://www.w3.org/1999/xlink" fill-opacity="1" color-rendering="auto" color-interpolation="auto" text-rendering="auto" stroke="black" stroke-linecap="square" width="1119" stroke-miterlimit="10" shape-rendering="auto" stroke-opacity="1" fill="black" stroke-dasharray="none" font-weight="normal" stroke-width="1" height="724" font-family="'Dialog'" font-style="normal" stroke-linejoin="miter" font-size="12px" stroke-dashoffset="0" image-rendering="auto">
  <!--Generated by ySVG 2.5-->
  <defs id="genericDefs"/>
  <g>
    <defs id="defs1">
      <clipPath clipPathUnits="userSpaceOnUse" id="clipPath1">
        <path d="M0 0 L1119 0 L1119 724 L0 724 L0 0 Z"/>
      </clipPath>
      <clipPath clipPathUnits="userSpaceOnUse" id="clipPath2">
        <path d="M-28 502 L1091 502 L1091 1226 L-28 1226 L-28 502 Z"/>
      </clipPath>
      <clipPath clipPathUnits="userSpaceOnUse" id="clipPath3">
        <path d="M881 941 L1071 941 L1071 1023 L881 1023 L881 941 Z"/>
      </clipPath>
      <clipPath clipPathUnits="userSpaceOnUse" id="clipPath4">
        <path d="M881 1035 L1071 1035 L1071 1117 L881 1117 L881 1035 Z"/>
      </clipPath>
      <clipPath clipPathUnits="userSpaceOnUse" id="clipPath5">
        <path d="M881 847 L1071 847 L1071 929 L881 929 L881 847 Z"/>
      </clipPath>
      <clipPath clipPathUnits="userSpaceOnUse" id="clipPath6">
        <path d="M881 1129 L1071 1129 L1071 1211 L881 1211 L881 1129 Z"/>
      </clipPath>
      <clipPath clipPathUnits="userSpaceOnUse" id="clipPath7">
        <path d="M-11 535 L212 535 L212 608 L-11 608 L-11 535 Z"/>
      </clipPath>
      <clipPath clipPathUnits="userSpaceOnUse" id="clipPath8">
        <path d="M-11 614 L212 614 L212 687 L-11 687 L-11 614 Z"/>
      </clipPath>
      <clipPath clipPathUnits="userSpaceOnUse" id="clipPath9">
        <path d="M-11 694 L212 694 L212 767 L-11 767 L-11 694 Z"/>
      </clipPath>
      <clipPath clipPathUnits="userSpaceOnUse" id="clipPath10">
        <path d="M-11 773 L212 773 L212 846 L-11 846 L-11 773 Z"/>
      </clipPath>
      <clipPath clipPathUnits="userSpaceOnUse" id="clipPath11">
        <path d="M265 834 L488 834 L488 894 L265 894 L265 834 Z"/>
      </clipPath>
      <clipPath clipPathUnits="userSpaceOnUse" id="clipPath12">
        <path d="M608 834 L831 834 L831 894 L608 894 L608 834 Z"/>
      </clipPath>
      <clipPath clipPathUnits="userSpaceOnUse" id="clipPath13">
        <path d="M325 933 L548 933 L548 993 L325 993 L325 933 Z"/>
      </clipPath>
      <clipPath clipPathUnits="userSpaceOnUse" id="clipPath14">
        <path d="M565 933 L788 933 L788 993 L565 993 L565 933 Z"/>
      </clipPath>
      <clipPath clipPathUnits="userSpaceOnUse" id="clipPath15">
        <path d="M439 611 L649 611 L649 749 L439 749 L439 611 Z"/>
      </clipPath>
      <clipPath clipPathUnits="userSpaceOnUse" id="clipPath16">
        <path d="M0 0 L0 16 L167 16 L167 0 Z"/>
      </clipPath>
      <clipPath clipPathUnits="userSpaceOnUse" id="clipPath17">
        <path d="M0 0 L0 18 L60 18 L60 0 Z"/>
      </clipPath>
      <script type="text/ecmascript"><![CDATA[      var SVGDocument = null;
      var SVGRoot = null;
      var TrueCoords = null;
      var lastElement = null;
      var initialized = null;
      var tipGroup;
      function Init(evt)
      {
         SVGDocument = evt.target.ownerDocument;
         SVGRoot = SVGDocument.documentElement;
         TrueCoords = SVGRoot.createSVGPoint();
         initialized = evt;
      };
      function GetTrueCoords(evt)
      {
         var newScale = SVGRoot.currentScale;
         var translation = SVGRoot.currentTranslate;
         TrueCoords.x = (evt.clientX - translation.x)/newScale;
         TrueCoords.y = (evt.clientY - translation.y)/newScale;
      };
      function HideTooltip( evt )
      {
         if(initialized == null) {
           Init(evt);
         }
         if(tipGroup != null) {
           tipGroup.setAttributeNS(null, 'visibility', 'hidden');
         }
      };
      function ShowTooltip( evt )
      {
         if(initialized == null) {
           Init(evt);
         }
         GetTrueCoords( evt );
         var tipScale = 1/SVGRoot.currentScale;
         var targetElement = evt.currentTarget;
         if ( lastElement != targetElement )
         {
            var targetId = targetElement.getAttributeNS(null, 'id');
            var tipId = 'tooltip.' + targetId;
            tipGroup = SVGDocument.getElementById(tipId);
            var xPos = TrueCoords.x + (10 * tipScale);
            var yPos = TrueCoords.y + (10 * tipScale);
            tipGroup.setAttributeNS(null, 'transform', 'translate(' + xPos + ',' + yPos + ') scale(' + tipScale + ')');
            tipGroup.setAttributeNS(null, 'visibility', 'visible');
         }
      };
]]></script>
    </defs>
    <g fill="white" text-rendering="geometricPrecision" shape-rendering="geometricPrecision" transform="translate(28,-502)" stroke="white">
      <rect x="-28" width="1119" height="724" y="502" clip-path="url(#clipPath2)" stroke="none"/>
    </g>
    <g id="y.node.0">
      <g fill="white" text-rendering="geometricPrecision" shape-rendering="geometricPrecision" transform="matrix(1,0,0,1,28,-502)" stroke="white">
        <rect x="862.325" y="816.25" width="223" rx="4" ry="4" height="404" stroke="none"/>
      </g>
      <g>
        <g text-rendering="geometricPrecision" stroke-miterlimit="1.45" shape-rendering="geometricPrecision" font-family="sans-serif" transform="matrix(1,0,0,1,28,-502)" stroke-linecap="butt">
          <text x="944.4754" xml:space="preserve" y="834.3145" stroke="none">Empfänger</text>
        </g>
      </g>
      <g text-rendering="geometricPrecision" stroke-miterlimit="1.45" stroke-dasharray="6,2" shape-rendering="geometricPrecision" transform="matrix(1,0,0,1,28,-502)" stroke-linecap="butt">
        <rect x="862.325" y="816.25" fill="none" width="223" rx="4" ry="4" height="404"/>
      </g>
    </g>
    <g id="y.node.1">
      <g fill="white" text-rendering="geometricPrecision" shape-rendering="geometricPrecision" transform="matrix(1,0,0,1,28,-502)" stroke="white">
        <rect x="-22.875" y="507.5046" width="250.8" rx="4" ry="4" height="350.1694" stroke="none"/>
      </g>
      <g>
        <g text-rendering="geometricPrecision" stroke-miterlimit="1.45" shape-rendering="geometricPrecision" font-family="sans-serif" transform="matrix(1,0,0,1,28,-502)" stroke-linecap="butt">
          <text x="81.1822" xml:space="preserve" y="525.569" stroke="none">Aufrufer</text>
        </g>
      </g>
      <g text-rendering="geometricPrecision" stroke-miterlimit="1.45" stroke-dasharray="6,2" shape-rendering="geometricPrecision" transform="matrix(1,0,0,1,28,-502)" stroke-linecap="butt">
        <rect x="-22.875" y="507.5046" fill="none" width="250.8" rx="4" ry="4" height="350.1694"/>
      </g>
    </g>
    <g id="y.node.2">
      <g fill="rgb(255,204,0)" text-rendering="geometricPrecision" shape-rendering="geometricPrecision" transform="matrix(1,0,0,1,28,-502)" stroke="rgb(255,204,0)">
        <rect x="882" width="188" height="80" y="942" stroke="none"/>
      </g>
      <g fill="yellow" text-rendering="geometricPrecision" shape-rendering="geometricPrecision" transform="matrix(1,0,0,1,28,-502)" stroke="yellow">
        <rect x="881" width="1" height="82" y="941" stroke="none"/>
        <rect x="882" width="188" height="1" y="941" stroke="none"/>
        <rect fill="rgb(178,142,0)" x="882" width="189" height="1" y="1022" stroke="none"/>
        <rect fill="rgb(178,142,0)" x="1070" width="1" height="81" y="941" stroke="none"/>
      </g>
      <g>
        <g font-size="13px" stroke-linecap="butt" transform="matrix(1,0,0,1,28,-502)" text-rendering="geometricPrecision" font-family="sans-serif" shape-rendering="geometricPrecision" font-weight="bold" stroke-miterlimit="1.45">
          <text x="938.8814" xml:space="preserve" y="959.3198" clip-path="url(#clipPath3)" stroke="none">PDFDrucker</text>
        </g>
      </g>
      <g text-rendering="geometricPrecision" shape-rendering="geometricPrecision" transform="matrix(1,0,0,1,28,-502)">
        <line y2="967" fill="none" x1="882" clip-path="url(#clipPath3)" x2="1070" y1="967"/>
        <line y2="977" fill="none" x1="882" clip-path="url(#clipPath3)" x2="1070" y1="977"/>
        <text stroke-linecap="butt" x="886.45" y="994.2407" clip-path="url(#clipPath3)" font-family="sans-serif" stroke="none" stroke-miterlimit="1.45" xml:space="preserve">speichern(dokument: String)</text>
      </g>
    </g>
    <g id="y.node.3">
      <g fill="rgb(255,204,0)" text-rendering="geometricPrecision" shape-rendering="geometricPrecision" transform="matrix(1,0,0,1,28,-502)" stroke="rgb(255,204,0)">
        <rect x="882" width="188" height="80" y="1036" stroke="none"/>
        <rect fill="yellow" x="881" width="1" height="82" y="1035" stroke="none"/>
        <rect fill="yellow" x="882" width="188" height="1" y="1035" stroke="none"/>
        <rect fill="rgb(178,142,0)" x="882" width="189" height="1" y="1116" stroke="none"/>
        <rect fill="rgb(178,142,0)" x="1070" width="1" height="81" y="1035" stroke="none"/>
      </g>
      <g>
        <g font-size="13px" stroke-linecap="butt" transform="matrix(1,0,0,1,28,-502)" text-rendering="geometricPrecision" font-family="sans-serif" shape-rendering="geometricPrecision" font-weight="bold" stroke-miterlimit="1.45">
          <text x="934.181" xml:space="preserve" y="1053.3198" clip-path="url(#clipPath4)" stroke="none">NadelDrucker</text>
        </g>
      </g>
      <g text-rendering="geometricPrecision" shape-rendering="geometricPrecision" transform="matrix(1,0,0,1,28,-502)">
        <line y2="1061" fill="none" x1="882" clip-path="url(#clipPath4)" x2="1070" y1="1061"/>
        <line y2="1071" fill="none" x1="882" clip-path="url(#clipPath4)" x2="1070" y1="1071"/>
        <text stroke-linecap="butt" x="886.45" y="1088.2407" clip-path="url(#clipPath4)" font-family="sans-serif" stroke="none" stroke-miterlimit="1.45" xml:space="preserve">umstaendlichKonfigurieren()</text>
        <text stroke-linecap="butt" x="886.45" y="1102.9419" clip-path="url(#clipPath4)" font-family="sans-serif" stroke="none" stroke-miterlimit="1.45" xml:space="preserve">drucken(dokument: String)</text>
      </g>
    </g>
    <g id="y.node.4">
      <g fill="rgb(255,204,0)" text-rendering="geometricPrecision" shape-rendering="geometricPrecision" transform="matrix(1,0,0,1,28,-502)" stroke="rgb(255,204,0)">
        <rect x="882" width="188" height="80" y="848" stroke="none"/>
        <rect fill="yellow" x="881" width="1" height="82" y="847" stroke="none"/>
        <rect fill="yellow" x="882" width="188" height="1" y="847" stroke="none"/>
        <rect fill="rgb(178,142,0)" x="882" width="189" height="1" y="928" stroke="none"/>
        <rect fill="rgb(178,142,0)" x="1070" width="1" height="81" y="847" stroke="none"/>
      </g>
      <g>
        <g font-size="13px" stroke-linecap="butt" transform="matrix(1,0,0,1,28,-502)" text-rendering="geometricPrecision" font-family="sans-serif" shape-rendering="geometricPrecision" font-weight="bold" stroke-miterlimit="1.45">
          <text x="937.796" xml:space="preserve" y="865.3198" clip-path="url(#clipPath5)" stroke="none">FarbDrucker</text>
        </g>
      </g>
      <g text-rendering="geometricPrecision" shape-rendering="geometricPrecision" transform="matrix(1,0,0,1,28,-502)">
        <line y2="873" fill="none" x1="882" clip-path="url(#clipPath5)" x2="1070" y1="873"/>
        <line y2="883" fill="none" x1="882" clip-path="url(#clipPath5)" x2="1070" y1="883"/>
        <text stroke-linecap="butt" x="886.45" y="900.2407" clip-path="url(#clipPath5)" font-family="sans-serif" stroke="none" stroke-miterlimit="1.45" xml:space="preserve">drucken(dokument: String)</text>
      </g>
    </g>
    <g id="y.node.5">
      <g fill="rgb(255,204,0)" text-rendering="geometricPrecision" shape-rendering="geometricPrecision" transform="matrix(1,0,0,1,28,-502)" stroke="rgb(255,204,0)">
        <rect x="882" width="188" height="80" y="1130" stroke="none"/>
        <rect fill="yellow" x="881" width="1" height="82" y="1129" stroke="none"/>
        <rect fill="yellow" x="882" width="188" height="1" y="1129" stroke="none"/>
        <rect fill="rgb(178,142,0)" x="882" width="189" height="1" y="1210" stroke="none"/>
        <rect fill="rgb(178,142,0)" x="1070" width="1" height="81" y="1129" stroke="none"/>
      </g>
      <g>
        <g font-size="13px" stroke-linecap="butt" transform="matrix(1,0,0,1,28,-502)" text-rendering="geometricPrecision" font-family="sans-serif" shape-rendering="geometricPrecision" font-weight="bold" stroke-miterlimit="1.45">
          <text x="906.7242" xml:space="preserve" y="1147.3198" clip-path="url(#clipPath6)" stroke="none">SchwarzWeissDrucker</text>
        </g>
      </g>
      <g text-rendering="geometricPrecision" shape-rendering="geometricPrecision" transform="matrix(1,0,0,1,28,-502)">
        <line y2="1155" fill="none" x1="882" clip-path="url(#clipPath6)" x2="1070" y1="1155"/>
        <line y2="1165" fill="none" x1="882" clip-path="url(#clipPath6)" x2="1070" y1="1165"/>
        <text stroke-linecap="butt" x="886.45" y="1182.2407" clip-path="url(#clipPath6)" font-family="sans-serif" stroke="none" stroke-miterlimit="1.45" xml:space="preserve">konfigurieren()</text>
        <text stroke-linecap="butt" x="886.45" y="1196.9419" clip-path="url(#clipPath6)" font-family="sans-serif" stroke="none" stroke-miterlimit="1.45" xml:space="preserve">drucken(dokument: String)</text>
      </g>
    </g>
    <g id="y.node.6">
      <g fill="rgb(255,204,0)" text-rendering="geometricPrecision" shape-rendering="geometricPrecision" transform="matrix(1,0,0,1,28,-502)" stroke="rgb(255,204,0)">
        <rect x="-10" width="221" height="71" y="536" stroke="none"/>
        <rect fill="yellow" x="-11" width="1" height="73" y="535" stroke="none"/>
        <rect fill="yellow" x="-10" width="221" height="1" y="535" stroke="none"/>
        <rect fill="rgb(178,142,0)" x="-10" width="222" height="1" y="607" stroke="none"/>
        <rect fill="rgb(178,142,0)" x="211" width="1" height="72" y="535" stroke="none"/>
      </g>
      <g>
        <g font-size="13px" stroke-linecap="butt" transform="matrix(1,0,0,1,28,-502)" text-rendering="geometricPrecision" font-family="sans-serif" shape-rendering="geometricPrecision" font-weight="bold" stroke-miterlimit="1.45">
          <text x="73.606" xml:space="preserve" y="553.0804" clip-path="url(#clipPath7)" stroke="none">Sekretär</text>
        </g>
      </g>
      <g text-rendering="geometricPrecision" shape-rendering="geometricPrecision" transform="matrix(1,0,0,1,28,-502)">
        <line y2="560" fill="none" x1="-10" clip-path="url(#clipPath7)" x2="210" y1="560"/>
        <line y2="570" fill="none" x1="-10" clip-path="url(#clipPath7)" x2="210" y1="570"/>
        <text stroke-linecap="butt" x="-6.875" y="588.0013" clip-path="url(#clipPath7)" font-family="sans-serif" stroke="none" stroke-miterlimit="1.45" xml:space="preserve">druckAusloesen(dokument: String)</text>
      </g>
    </g>
    <g id="y.node.7">
      <g fill="rgb(255,204,0)" text-rendering="geometricPrecision" shape-rendering="geometricPrecision" transform="matrix(1,0,0,1,28,-502)" stroke="rgb(255,204,0)">
        <rect x="-10" width="221" height="71" y="615" stroke="none"/>
        <rect fill="yellow" x="-11" width="1" height="73" y="614" stroke="none"/>
        <rect fill="yellow" x="-10" width="221" height="1" y="614" stroke="none"/>
        <rect fill="rgb(178,142,0)" x="-10" width="222" height="1" y="686" stroke="none"/>
        <rect fill="rgb(178,142,0)" x="211" width="1" height="72" y="614" stroke="none"/>
      </g>
      <g>
        <g font-size="13px" stroke-linecap="butt" transform="matrix(1,0,0,1,28,-502)" text-rendering="geometricPrecision" font-family="sans-serif" shape-rendering="geometricPrecision" font-weight="bold" stroke-miterlimit="1.45">
          <text x="71.4541" xml:space="preserve" y="632.6429" clip-path="url(#clipPath8)" stroke="none">Vorstand</text>
        </g>
      </g>
      <g text-rendering="geometricPrecision" shape-rendering="geometricPrecision" transform="matrix(1,0,0,1,28,-502)">
        <line y2="640" fill="none" x1="-10" clip-path="url(#clipPath8)" x2="210" y1="640"/>
        <line y2="650" fill="none" x1="-10" clip-path="url(#clipPath8)" x2="210" y1="650"/>
        <text stroke-linecap="butt" x="-6.875" y="667.5638" clip-path="url(#clipPath8)" font-family="sans-serif" stroke="none" stroke-miterlimit="1.45" xml:space="preserve">druckAusloesen(dokument: String)</text>
      </g>
    </g>
    <g id="y.node.8">
      <g fill="rgb(255,204,0)" text-rendering="geometricPrecision" shape-rendering="geometricPrecision" transform="matrix(1,0,0,1,28,-502)" stroke="rgb(255,204,0)">
        <rect x="-10" width="221" height="71" y="695" stroke="none"/>
        <rect fill="yellow" x="-11" width="1" height="73" y="694" stroke="none"/>
        <rect fill="yellow" x="-10" width="221" height="1" y="694" stroke="none"/>
        <rect fill="rgb(178,142,0)" x="-10" width="222" height="1" y="766" stroke="none"/>
        <rect fill="rgb(178,142,0)" x="211" width="1" height="72" y="694" stroke="none"/>
      </g>
      <g>
        <g font-size="13px" stroke-linecap="butt" transform="matrix(1,0,0,1,28,-502)" text-rendering="geometricPrecision" font-family="sans-serif" shape-rendering="geometricPrecision" font-weight="bold" stroke-miterlimit="1.45">
          <text x="68.1946" xml:space="preserve" y="712.2054" clip-path="url(#clipPath9)" stroke="none">Praktikant</text>
        </g>
      </g>
      <g text-rendering="geometricPrecision" shape-rendering="geometricPrecision" transform="matrix(1,0,0,1,28,-502)">
        <line y2="720" fill="none" x1="-10" clip-path="url(#clipPath9)" x2="210" y1="720"/>
        <line y2="730" fill="none" x1="-10" clip-path="url(#clipPath9)" x2="210" y1="730"/>
        <text stroke-linecap="butt" x="-6.875" y="747.1263" clip-path="url(#clipPath9)" font-family="sans-serif" stroke="none" stroke-miterlimit="1.45" xml:space="preserve">druckAusloesen(dokument: String)</text>
      </g>
    </g>
    <g id="y.node.9">
      <g fill="rgb(255,204,0)" text-rendering="geometricPrecision" shape-rendering="geometricPrecision" transform="matrix(1,0,0,1,28,-502)" stroke="rgb(255,204,0)">
        <rect x="-10" width="221" height="71" y="774" stroke="none"/>
        <rect fill="yellow" x="-11" width="1" height="73" y="773" stroke="none"/>
        <rect fill="yellow" x="-10" width="221" height="1" y="773" stroke="none"/>
        <rect fill="rgb(178,142,0)" x="-10" width="222" height="1" y="845" stroke="none"/>
        <rect fill="rgb(178,142,0)" x="211" width="1" height="72" y="773" stroke="none"/>
      </g>
      <g>
        <g font-size="13px" stroke-linecap="butt" transform="matrix(1,0,0,1,28,-502)" text-rendering="geometricPrecision" font-family="sans-serif" shape-rendering="geometricPrecision" font-weight="bold" stroke-miterlimit="1.45">
          <text x="53.0205" xml:space="preserve" y="791.7679" clip-path="url(#clipPath10)" stroke="none">Programmierer</text>
        </g>
      </g>
      <g text-rendering="geometricPrecision" shape-rendering="geometricPrecision" transform="matrix(1,0,0,1,28,-502)">
        <line y2="799" fill="none" x1="-10" clip-path="url(#clipPath10)" x2="210" y1="799"/>
        <line y2="809" fill="none" x1="-10" clip-path="url(#clipPath10)" x2="210" y1="809"/>
        <text stroke-linecap="butt" x="-6.875" y="826.6888" clip-path="url(#clipPath10)" font-family="sans-serif" stroke="none" stroke-miterlimit="1.45" xml:space="preserve">druckAusloesen(dokument: String)</text>
      </g>
    </g>
    <g id="y.node.10">
      <g fill="white" text-rendering="geometricPrecision" shape-rendering="geometricPrecision" transform="matrix(1,0,0,1,28,-502)" stroke="white">
        <rect x="249.125" y="828.1253" width="592" rx="4" ry="4" height="195.1247" stroke="none"/>
      </g>
      <g>
        <g text-rendering="geometricPrecision" stroke-miterlimit="1.45" shape-rendering="geometricPrecision" font-family="sans-serif" transform="matrix(1,0,0,1,28,-502)" stroke-linecap="butt">
          <text x="499.0938" xml:space="preserve" y="1014.6133" stroke="none">Konkrete Befehle</text>
        </g>
      </g>
      <g text-rendering="geometricPrecision" stroke-miterlimit="1.45" stroke-dasharray="6,2" shape-rendering="geometricPrecision" transform="matrix(1,0,0,1,28,-502)" stroke-linecap="butt">
        <rect x="249.125" y="828.1253" fill="none" width="592" rx="4" ry="4" height="195.1247"/>
      </g>
    </g>
    <g id="y.node.11">
      <g fill="rgb(255,204,0)" text-rendering="geometricPrecision" shape-rendering="geometricPrecision" transform="matrix(1,0,0,1,28,-502)" stroke="rgb(255,204,0)">
        <rect x="266" width="221" height="58" y="835" stroke="none"/>
        <rect fill="yellow" x="265" width="1" height="60" y="834" stroke="none"/>
        <rect fill="yellow" x="266" width="221" height="1" y="834" stroke="none"/>
        <rect fill="rgb(178,142,0)" x="266" width="222" height="1" y="893" stroke="none"/>
        <rect fill="rgb(178,142,0)" x="487" width="1" height="59" y="834" stroke="none"/>
      </g>
      <g>
        <g font-size="13px" stroke-linecap="butt" transform="matrix(1,0,0,1,28,-502)" text-rendering="geometricPrecision" font-family="sans-serif" shape-rendering="geometricPrecision" font-weight="bold" stroke-miterlimit="1.45">
          <text x="293.3037" xml:space="preserve" y="852.8198" clip-path="url(#clipPath11)" stroke="none">SchwarzWeissDruckBefehl</text>
        </g>
      </g>
      <g text-rendering="geometricPrecision" shape-rendering="geometricPrecision" transform="matrix(1,0,0,1,28,-502)">
        <line y2="860" fill="none" x1="266" clip-path="url(#clipPath11)" x2="487" y1="860"/>
        <line y2="870" fill="none" x1="266" clip-path="url(#clipPath11)" x2="487" y1="870"/>
        <text stroke-linecap="butt" x="270.25" y="887.7407" clip-path="url(#clipPath11)" font-family="sans-serif" stroke="none" stroke-miterlimit="1.45" xml:space="preserve">ausfuehren(dokument: String)</text>
      </g>
    </g>
    <g id="y.node.12">
      <g fill="rgb(255,204,0)" text-rendering="geometricPrecision" shape-rendering="geometricPrecision" transform="matrix(1,0,0,1,28,-502)" stroke="rgb(255,204,0)">
        <rect x="609" width="221" height="58" y="835" stroke="none"/>
        <rect fill="yellow" x="608" width="1" height="60" y="834" stroke="none"/>
        <rect fill="yellow" x="609" width="221" height="1" y="834" stroke="none"/>
        <rect fill="rgb(178,142,0)" x="609" width="222" height="1" y="893" stroke="none"/>
        <rect fill="rgb(178,142,0)" x="830" width="1" height="59" y="834" stroke="none"/>
      </g>
      <g>
        <g font-size="13px" stroke-linecap="butt" transform="matrix(1,0,0,1,28,-502)" text-rendering="geometricPrecision" font-family="sans-serif" shape-rendering="geometricPrecision" font-weight="bold" stroke-miterlimit="1.45">
          <text x="667.3755" xml:space="preserve" y="852.8198" clip-path="url(#clipPath12)" stroke="none">FarbDruckBefehl</text>
        </g>
      </g>
      <g text-rendering="geometricPrecision" shape-rendering="geometricPrecision" transform="matrix(1,0,0,1,28,-502)">
        <line y2="860" fill="none" x1="609" clip-path="url(#clipPath12)" x2="830" y1="860"/>
        <line y2="870" fill="none" x1="609" clip-path="url(#clipPath12)" x2="830" y1="870"/>
        <text stroke-linecap="butt" x="613.25" y="887.7407" clip-path="url(#clipPath12)" font-family="sans-serif" stroke="none" stroke-miterlimit="1.45" xml:space="preserve">ausfuehren(dokument: String)</text>
      </g>
    </g>
    <g id="y.node.13">
      <g fill="rgb(255,204,0)" text-rendering="geometricPrecision" shape-rendering="geometricPrecision" transform="matrix(1,0,0,1,28,-502)" stroke="rgb(255,204,0)">
        <rect x="326" width="221" height="58" y="934" stroke="none"/>
        <rect fill="yellow" x="325" width="1" height="60" y="933" stroke="none"/>
        <rect fill="yellow" x="326" width="221" height="1" y="933" stroke="none"/>
        <rect fill="rgb(178,142,0)" x="326" width="222" height="1" y="992" stroke="none"/>
        <rect fill="rgb(178,142,0)" x="547" width="1" height="59" y="933" stroke="none"/>
      </g>
      <g>
        <g font-size="13px" stroke-linecap="butt" transform="matrix(1,0,0,1,28,-502)" text-rendering="geometricPrecision" font-family="sans-serif" shape-rendering="geometricPrecision" font-weight="bold" stroke-miterlimit="1.45">
          <text x="380.7605" xml:space="preserve" y="951.8198" clip-path="url(#clipPath13)" stroke="none">NadelDruckBefehl</text>
        </g>
      </g>
      <g text-rendering="geometricPrecision" shape-rendering="geometricPrecision" transform="matrix(1,0,0,1,28,-502)">
        <line y2="959" fill="none" x1="326" clip-path="url(#clipPath13)" x2="547" y1="959"/>
        <line y2="969" fill="none" x1="326" clip-path="url(#clipPath13)" x2="547" y1="969"/>
        <text stroke-linecap="butt" x="330.25" y="986.7407" clip-path="url(#clipPath13)" font-family="sans-serif" stroke="none" stroke-miterlimit="1.45" xml:space="preserve">ausfuehren(dokument: String)</text>
      </g>
    </g>
    <g id="y.node.14">
      <g fill="rgb(255,204,0)" text-rendering="geometricPrecision" shape-rendering="geometricPrecision" transform="matrix(1,0,0,1,28,-502)" stroke="rgb(255,204,0)">
        <rect x="566" width="221" height="58" y="934" stroke="none"/>
        <rect fill="yellow" x="565" width="1" height="60" y="933" stroke="none"/>
        <rect fill="yellow" x="566" width="221" height="1" y="933" stroke="none"/>
        <rect fill="rgb(178,142,0)" x="566" width="222" height="1" y="992" stroke="none"/>
        <rect fill="rgb(178,142,0)" x="787" width="1" height="59" y="933" stroke="none"/>
      </g>
      <g>
        <g font-size="13px" stroke-linecap="butt" transform="matrix(1,0,0,1,28,-502)" text-rendering="geometricPrecision" font-family="sans-serif" shape-rendering="geometricPrecision" font-weight="bold" stroke-miterlimit="1.45">
          <text x="625.4609" xml:space="preserve" y="951.8198" clip-path="url(#clipPath14)" stroke="none">PDFDruckBefehl</text>
        </g>
      </g>
      <g text-rendering="geometricPrecision" shape-rendering="geometricPrecision" transform="matrix(1,0,0,1,28,-502)">
        <line y2="959" fill="none" x1="566" clip-path="url(#clipPath14)" x2="787" y1="959"/>
        <line y2="969" fill="none" x1="566" clip-path="url(#clipPath14)" x2="787" y1="969"/>
        <text stroke-linecap="butt" x="570.25" y="986.7407" clip-path="url(#clipPath14)" font-family="sans-serif" stroke="none" stroke-miterlimit="1.45" xml:space="preserve">ausfuehren(dokument: String)</text>
      </g>
    </g>
    <g onmouseout="HideTooltip(evt)" id="y.node.15" onmousemove="ShowTooltip(evt)">
      <g fill="rgb(255,204,0)" text-rendering="geometricPrecision" shape-rendering="geometricPrecision" transform="matrix(1,0,0,1,28,-502)" stroke="rgb(255,204,0)">
        <rect x="440" width="208" height="136" y="612" stroke="none"/>
        <rect fill="yellow" x="439" width="1" height="138" y="611" stroke="none"/>
        <rect fill="yellow" x="440" width="208" height="1" y="611" stroke="none"/>
        <rect fill="rgb(178,142,0)" x="440" width="209" height="1" y="748" stroke="none"/>
        <rect fill="rgb(178,142,0)" x="648" width="1" height="137" y="611" stroke="none"/>
      </g>
      <g text-rendering="geometricPrecision" stroke-miterlimit="1.45" shape-rendering="geometricPrecision" font-family="sans-serif" transform="matrix(1,0,0,1,28,-502)" stroke-linecap="butt">
        <text x="508.0967" xml:space="preserve" y="628.7885" clip-path="url(#clipPath15)" stroke="none">&lt;&lt;interface&gt;&gt;</text>
      </g>
      <g>
        <g stroke-linecap="butt" font-size="13px" transform="matrix(1,0,0,1,28,-502)" text-rendering="geometricPrecision" font-family="sans-serif" shape-rendering="geometricPrecision" font-style="italic" font-weight="bold" stroke-miterlimit="1.45">
          <text x="506.8359" xml:space="preserve" y="653.495" clip-path="url(#clipPath15)" stroke="none">DruckBefehl</text>
        </g>
      </g>
      <g text-rendering="geometricPrecision" shape-rendering="geometricPrecision" transform="matrix(1,0,0,1,28,-502)">
        <line y2="661" fill="none" x1="440" clip-path="url(#clipPath15)" x2="649" y1="661"/>
        <line y2="671" fill="none" x1="440" clip-path="url(#clipPath15)" x2="649" y1="671"/>
      </g>
      <g stroke-linecap="butt" transform="matrix(1,0,0,1,28,-502) translate(444,676)" text-rendering="geometricPrecision" font-family="sans-serif" shape-rendering="geometricPrecision" font-style="italic" stroke-miterlimit="1.45">
        <text x="0" xml:space="preserve" y="13" clip-path="url(#clipPath16)" stroke="none">ausfuehren(dokument: String) </text>
      </g>
    </g>
    <g id="y.edge.11">
      <g text-rendering="geometricPrecision" stroke-miterlimit="1.45" shape-rendering="geometricPrecision" transform="matrix(1,0,0,1,28,-502)" stroke-linecap="butt">
        <path fill="none" d="M881.483 1170.25 L296.75 1170.25 L296.75 901.7704"/>
        <path fill="white" d="M296.75 894.7704 L301.75 901.7704 L296.75 908.7704 L291.75 901.7704 Z" stroke="none"/>
        <path fill="none" d="M296.75 894.7704 L301.75 901.7704 L296.75 908.7704 L291.75 901.7704 Z"/>
      </g>
      <g>
        <g text-rendering="geometricPrecision" stroke-miterlimit="1.45" shape-rendering="geometricPrecision" font-family="sans-serif" transform="matrix(1,0,0,1,28,-502)" stroke-linecap="butt">
          <text x="829.3113" xml:space="preserve" y="1163.6133" stroke="none">drucker</text>
        </g>
      </g>
    </g>
    <g id="y.edge.10">
      <g text-rendering="geometricPrecision" stroke-miterlimit="1.45" shape-rendering="geometricPrecision" transform="matrix(1,0,0,1,28,-502)" stroke-linecap="butt">
        <path fill="none" d="M881.451 879.25 L838.2325 879.25"/>
        <path fill="white" d="M831.2325 879.25 L838.2325 874.25 L845.2325 879.25 L838.2325 884.25 Z" stroke="none"/>
        <path fill="none" d="M831.2325 879.25 L838.2325 874.25 L845.2325 879.25 L838.2325 884.25 Z"/>
      </g>
      <g>
        <g text-rendering="geometricPrecision" stroke-miterlimit="1.45" shape-rendering="geometricPrecision" font-family="sans-serif" transform="matrix(1,0,0,1,28,-502)" stroke-linecap="butt">
          <text x="836.3431" xml:space="preserve" y="872.6133" stroke="none">drucker</text>
        </g>
      </g>
    </g>
    <g id="y.edge.9">
      <g text-rendering="geometricPrecision" stroke-miterlimit="1.45" shape-rendering="geometricPrecision" transform="matrix(1,0,0,1,28,-502)" stroke-linecap="butt">
        <path fill="none" d="M881.4226 1076.25 L410.5 1076.25 L410.5 1000.7701"/>
        <path fill="white" d="M410.5 993.7701 L415.5 1000.7701 L410.5 1007.7701 L405.5 1000.7701 Z" stroke="none"/>
        <path fill="none" d="M410.5 993.7701 L415.5 1000.7701 L410.5 1007.7701 L405.5 1000.7701 Z"/>
      </g>
      <g>
        <g text-rendering="geometricPrecision" stroke-miterlimit="1.45" shape-rendering="geometricPrecision" font-family="sans-serif" transform="matrix(1,0,0,1,28,-502)" stroke-linecap="butt">
          <text x="829.3113" xml:space="preserve" y="1069.6133" stroke="none">drucker</text>
        </g>
      </g>
    </g>
    <g id="y.edge.8">
      <g text-rendering="geometricPrecision" stroke-miterlimit="1.45" shape-rendering="geometricPrecision" transform="matrix(1,0,0,1,28,-502)" stroke-linecap="butt">
        <path fill="none" d="M881.4401 982.25 L795.2402 982.25"/>
        <path fill="white" d="M788.2402 982.25 L795.2402 977.25 L802.2402 982.25 L795.2402 987.25 Z" stroke="none"/>
        <path fill="none" d="M788.2402 982.25 L795.2402 977.25 L802.2402 982.25 L795.2402 987.25 Z"/>
      </g>
      <g>
        <g text-rendering="geometricPrecision" stroke-miterlimit="1.45" shape-rendering="geometricPrecision" font-family="sans-serif" transform="matrix(1,0,0,1,28,-502)" stroke-linecap="butt">
          <text x="829.3113" xml:space="preserve" y="975.6133" stroke="none">drucker</text>
        </g>
      </g>
    </g>
    <g id="y.edge.0">
      <g text-rendering="geometricPrecision" stroke-miterlimit="1.45" stroke-dasharray="6,2" shape-rendering="geometricPrecision" transform="matrix(1,0,0,1,28,-502)" stroke-linecap="butt">
        <path fill="none" d="M459.125 834.7564 L459.125 765.4695"/>
        <path fill="white" d="M459.125 750.4695 L453.125 766.4695 L465.125 766.4695 Z" stroke="none"/>
        <path stroke-dasharray="none" fill="none" d="M459.125 750.4695 L453.125 766.4695 L465.125 766.4695 Z"/>
      </g>
      <g/>
    </g>
    <g id="y.edge.1">
      <g text-rendering="geometricPrecision" stroke-miterlimit="1.45" stroke-dasharray="6,2" shape-rendering="geometricPrecision" transform="matrix(1,0,0,1,28,-502)" stroke-linecap="butt">
        <path fill="none" d="M634.25 834.7564 L634.25 765.4695"/>
        <path fill="white" d="M634.25 750.4695 L628.25 766.4695 L640.25 766.4695 Z" stroke="none"/>
        <path stroke-dasharray="none" fill="none" d="M634.25 750.4695 L628.25 766.4695 L640.25 766.4695 Z"/>
      </g>
      <g/>
    </g>
    <g id="y.edge.2">
      <g text-rendering="geometricPrecision" stroke-miterlimit="1.45" stroke-dasharray="6,2" shape-rendering="geometricPrecision" transform="matrix(1,0,0,1,28,-502)" stroke-linecap="butt">
        <path fill="none" d="M518.25 933.768 L518.25 765.4752"/>
        <path fill="white" d="M518.25 750.4752 L512.25 766.4752 L524.25 766.4752 Z" stroke="none"/>
        <path stroke-dasharray="none" fill="none" d="M518.25 750.4752 L512.25 766.4752 L524.25 766.4752 Z"/>
      </g>
      <g/>
    </g>
    <g id="y.edge.3">
      <g text-rendering="geometricPrecision" stroke-miterlimit="1.45" stroke-dasharray="6,2" shape-rendering="geometricPrecision" transform="matrix(1,0,0,1,28,-502)" stroke-linecap="butt">
        <path fill="none" d="M580.25 933.768 L580.25 765.4752"/>
        <path fill="white" d="M580.25 750.4752 L574.25 766.4752 L586.25 766.4752 Z" stroke="none"/>
        <path stroke-dasharray="none" fill="none" d="M580.25 750.4752 L574.25 766.4752 L586.25 766.4752 Z"/>
      </g>
      <g/>
    </g>
    <g id="y.edge.4">
      <g text-rendering="geometricPrecision" stroke-miterlimit="1.45" shape-rendering="geometricPrecision" transform="matrix(1,0,0,1,28,-502)" stroke-linecap="butt">
        <path fill="none" d="M439.8328 629.5236 L317.358 629.5236 L317.358 571.9986 L218.1228 571.9986"/>
        <path fill="white" d="M211.1228 571.9986 L218.1228 566.9986 L225.1228 571.9986 L218.1228 576.9986 Z" stroke="none"/>
        <path fill="none" d="M211.1228 571.9986 L218.1228 566.9986 L225.1228 571.9986 L218.1228 576.9986 Z"/>
      </g>
      <g>
        <g text-rendering="geometricPrecision" stroke-miterlimit="1.45" shape-rendering="geometricPrecision" font-family="sans-serif" transform="matrix(1,0,0,1,28,-502)" stroke-linecap="butt">
          <text x="364.3184" xml:space="preserve" y="622.8869" stroke="none">druckBefehl</text>
        </g>
      </g>
    </g>
    <g id="y.edge.5">
      <g text-rendering="geometricPrecision" stroke-miterlimit="1.45" shape-rendering="geometricPrecision" transform="matrix(1,0,0,1,28,-502)" stroke-linecap="butt">
        <path fill="none" d="M439.8136 655.674 L218.1248 655.674"/>
        <path fill="white" d="M211.1248 655.674 L218.1248 650.674 L225.1248 655.674 L218.1248 660.674 Z" stroke="none"/>
        <path fill="none" d="M211.1248 655.674 L218.1248 650.674 L225.1248 655.674 L218.1248 660.674 Z"/>
      </g>
      <g>
        <g text-rendering="geometricPrecision" stroke-miterlimit="1.45" shape-rendering="geometricPrecision" font-family="sans-serif" transform="matrix(1,0,0,1,28,-502)" stroke-linecap="butt">
          <text x="364.3184" xml:space="preserve" y="649.0373" stroke="none">druckBefehl</text>
        </g>
      </g>
    </g>
    <g id="y.edge.6">
      <g text-rendering="geometricPrecision" stroke-miterlimit="1.45" shape-rendering="geometricPrecision" transform="matrix(1,0,0,1,28,-502)" stroke-linecap="butt">
        <path fill="none" d="M439.8136 715.9845 L218.1248 715.9845"/>
        <path fill="white" d="M211.1248 715.9845 L218.1248 710.9845 L225.1248 715.9845 L218.1248 720.9845 Z" stroke="none"/>
        <path fill="none" d="M211.1248 715.9845 L218.1248 710.9845 L225.1248 715.9845 L218.1248 720.9845 Z"/>
      </g>
      <g>
        <g text-rendering="geometricPrecision" stroke-miterlimit="1.45" shape-rendering="geometricPrecision" font-family="sans-serif" transform="matrix(1,0,0,1,28,-502)" stroke-linecap="butt">
          <text x="364.3184" xml:space="preserve" y="709.3478" stroke="none">druckBefehl</text>
        </g>
      </g>
    </g>
    <g id="y.edge.7">
      <g text-rendering="geometricPrecision" stroke-miterlimit="1.45" shape-rendering="geometricPrecision" transform="matrix(1,0,0,1,28,-502)" stroke-linecap="butt">
        <path fill="none" d="M439.8328 742.8097 L317.358 742.8097 L317.358 798.2548 L218.1228 798.2548"/>
        <path fill="white" d="M211.1228 798.2548 L218.1228 793.2548 L225.1228 798.2548 L218.1228 803.2548 Z" stroke="none"/>
        <path fill="none" d="M211.1228 798.2548 L218.1228 793.2548 L225.1228 798.2548 L218.1228 803.2548 Z"/>
      </g>
      <g>
        <g text-rendering="geometricPrecision" stroke-miterlimit="1.45" shape-rendering="geometricPrecision" font-family="sans-serif" transform="matrix(1,0,0,1,28,-502)" stroke-linecap="butt">
          <text x="364.3184" xml:space="preserve" y="736.173" stroke="none">druckBefehl</text>
        </g>
      </g>
    </g>
    <g visibility="hidden" id="tooltip.y.node.15" pointer-events="none">
      <g fill="rgb(255,255,225)" text-rendering="geometricPrecision" shape-rendering="geometricPrecision" font-family="'Segoe UI'" stroke="rgb(255,255,225)">
        <rect x="0" width="60" height="18" y="0" clip-path="url(#clipPath17)" stroke="none"/>
        <text fill="black" x="4" xml:space="preserve" y="14" clip-path="url(#clipPath17)" stroke="none">UMLClass</text>
      </g>
      <g font-family="'Segoe UI'" text-rendering="geometricPrecision" shape-rendering="geometricPrecision">
        <path d="M0 0 L60 0 L60 18 L0 18 L0 0 ZM1 1 L59 1 L59 17 L1 17 L1 1 Z" fill-rule="evenodd" clip-path="url(#clipPath17)" stroke="none"/>
      </g>
    </g>
  </g>
</svg>
